<?xml version="1.0" standalone="no"?>
<!DOCTYPE svg PUBLIC "-//W3C//DTD SVG 20010904//EN"
 "http://www.w3.org/TR/2001/REC-SVG-20010904/DTD/svg10.dtd">
<svg version="1.0" xmlns="http://www.w3.org/2000/svg"
 width="1024.000000pt" height="1024.000000pt" viewBox="0 0 1024.000000 1024.000000"
 preserveAspectRatio="xMidYMid meet">
<metadata>
Created by potrace 1.11, written by Peter Selinger 2001-2013
</metadata>
<g transform="translate(0.000000,1024.000000) scale(0.100000,-0.100000)"
fill="#000000" stroke="none">
<path d="M0 5120 l0 -5120 5120 0 5120 0 0 5120 0 5120 -5120 0 -5120 0 0
-5120z m6498 3319 c135 -43 271 -155 334 -275 53 -100 71 -174 71 -279 0 -158
-59 -300 -170 -411 l-63 -63 35 -90 c154 -399 135 -862 -51 -1234 -224 -450
-628 -751 -1149 -858 -101 -21 -145 -23 -560 -28 -325 -4 -456 -9 -471 -18
-37 -21 -83 -81 -90 -118 -17 -93 15 -168 89 -208 l42 -22 845 -6 c822 -5 848
-6 942 -27 271 -61 486 -174 675 -355 217 -208 358 -469 409 -757 23 -130 22
-373 -1 -505 -100 -572 -552 -1021 -1129 -1120 -133 -23 -2164 -22 -2306 0
-554 90 -995 537 -1095 1110 -24 134 -24 384 -1 520 47 268 171 517 355 708
l84 87 -36 78 c-171 369 -127 787 117 1120 23 31 46 63 50 70 5 9 -8 33 -37
70 -281 359 -385 814 -287 1263 117 541 529 996 1062 1174 237 79 247 80 773
80 456 0 473 -1 580 -24 61 -13 161 -41 224 -63 l114 -40 39 46 c87 102 238
181 368 195 73 7 183 -2 238 -20z"/>
<path d="M4535 7231 c-199 -59 -342 -211 -375 -400 -35 -192 66 -378 253 -467
127 -60 178 -66 562 -62 337 4 341 4 412 30 148 53 242 131 296 246 30 63 32
74 32 177 -1 90 -5 120 -24 167 -50 129 -165 239 -307 295 l-69 28 -360 2
c-320 2 -367 0 -420 -16z"/>
<path d="M4103 3721 c-48 -12 -119 -58 -147 -94 -59 -77 -74 -217 -36 -321 25
-65 87 -139 144 -169 l41 -22 1000 0 1000 0 51 27 c66 35 147 124 168 184 19
56 21 151 4 206 -18 60 -86 130 -160 164 l-63 29 -985 2 c-542 0 -999 -2
-1017 -6z"/>
</g>
</svg>
